<?xml version="1.0" encoding="UTF-8"?>
<!DOCTYPE svg PUBLIC "-//W3C//DTD SVG 1.1//EN" "http://www.w3.org/Graphics/SVG/1.1/DTD/svg11.dtd">
<!-- Creator: CorelDRAW -->
<svg xmlns="http://www.w3.org/2000/svg" xml:space="preserve" width="160.439mm" height="49.1173mm" version="1.1" style="shape-rendering:geometricPrecision; text-rendering:geometricPrecision; image-rendering:optimizeQuality; fill-rule:evenodd; clip-rule:evenodd"
viewBox="0 0 15651.73 4791.67"
 xmlns:xlink="http://www.w3.org/1999/xlink"
 xmlns:xodm="http://www.corel.com/coreldraw/odm/2003">
 <defs>
  <style type="text/css">
   <![CDATA[
    .fil0 {fill:#FEFEFE}
   ]]>
  </style>
 </defs>
 <g id="Laag_x0020_1">
  <metadata id="CorelCorpID_0Corel-Layer"/>
  <g id="_2270477093440">
   <g>
    <polygon class="fil0" points="5627.24,1816.16 6020.55,1813.96 6380.9,2640.12 6736.85,1816.16 7136.75,1816.16 6552.28,3121.32 6207.32,3121.32 "/>
    <polygon class="fil0" points="10437.01,1816.16 10830.32,1813.96 11190.66,2640.12 11546.62,1816.16 11946.51,1816.16 11362.04,3121.32 11017.08,3121.32 "/>
    <path class="fil0" d="M7959.53 2145.74c165.6,0 299.85,144.62 299.85,323 0,178.38 -134.25,323 -299.85,323 -165.59,0 -299.84,-144.62 -299.84,-323 0,-178.38 134.25,-323 299.84,-323zm0 -351.55c371.99,0 673.53,302 673.53,674.55 0,372.55 -301.54,674.55 -673.53,674.55 -371.98,0 -673.53,-302 -673.53,-674.55 0,-372.55 301.55,-674.55 673.53,-674.55z"/>
    <rect class="fil0" x="8848.4" y="1350.34" width="402.1" height="1762.19"/>
    <path class="fil0" d="M12766.09 1820.55l402.1 0 0 205.45c57.63,-85.98 162.72,-224.12 377.81,-228.18 215.09,-4.06 498.92,148.79 498.91,492.95l-0.02 821.76 -402.1 0 0 -826.16c0,-87.03 -251.43,-376.39 -474.61,63.54l0 762.62 -402.1 0 0 -1291.98zm2405.85 1291.98l479.79 0 -646.1 -753 507.51 -543.62 -479.8 0 -345.1 369.67 0 -836.85 -402.1 0 0 1763.81 402.1 0 0 -413.03 67.37 -72.17 416.33 485.2z"/>
    <rect class="fil0" x="12120.09" y="1811.76" width="402.1" height="1300.77"/>
    <rect class="fil0" x="12120.09" y="1350.34" width="402.1" height="327.39"/>
    <path class="fil0" d="M9437.26 1816.16l186.77 0 0 -312.01 391.11 0 0 312.01 279.05 0 0 327.39 -279.05 0 0 553.76c0,94.71 199.16,108.47 270.26,48.08l6.82 335.43c-236.39,115.95 -668.19,58.15 -668.19,-304.88l0 -632.38 -186.77 0 0 -327.39z"/>
   </g>
   <path class="fil0" d="M2395.84 0c1323.18,0 2395.83,1072.65 2395.83,2395.84 0,1323.19 -1072.65,2395.83 -2395.83,2395.83 -1323.19,0 -2395.84,-1072.64 -2395.84,-2395.83 0,-1323.19 1072.65,-2395.84 2395.84,-2395.84zm1132.36 1122.23l336.28 636.42 -1938.6 1926.04 -968.17 -968.47 336.28 -636.41 628.89 626.91 1605.31 -1584.49z"/>
  </g>
 </g>
</svg>
